<svg xmlns="http://www.w3.org/2000/svg" xml:space="preserve" width="7148" height="7149" overflow="hidden"><defs><clipPath id="a"><path d="M-2934-3320h7148v7149h-7148z"/></clipPath></defs><g clip-path="url(#a)" transform="translate(2934 3320)"><path fill="#0F0" d="M1523.75-2011.207c-14.12-1.19-28.4-.91-42.6-1.07-12.08-.15-24.16 0-36.33 0v44.156c16.29 0 31.97.16 47.65 0 11.03-.15 22.18 1.28 33.07-1.31 12.42-2.98 19.06-11.442 18.3-22.473-.76-11.032-7.48-18.253-20.09-19.303ZM1518.23-2027.87c11.91-.33 18.68-7.91 19.06-18.652.38-10.751-5.31-17.322-18.3-19.062-21.28-2.79-42.72-.62-64.09-1.12-3.41 0-7.15-1.08-10.18 2.38v36.605c25.31.04 49.42.5 73.51-.15ZM21.44-2048.192c-1.82-8.701-6.68-16.042-16.09-16.682-26.73-1.86-53.49-1.02-80.72-.45v44.796c25.75 0 50.22.12 74.67 0 4.79-.22 9.4-1.88 13.22-4.76a20.794 20.794 0 0 0 8.92-22.904ZM534.14-2513.974c-16.32 33.744-14.11 79.402 5.84 119.77 17.77 35.983 28.99 44.443 41.48 31.288 3.19-3.36 32.26-39.987 64.62-81.426 42.88-54.953 58.85-76.9 58.87-81.166 0-15.871-52.77-41.63-85.77-41.75-36.12.318-69 20.916-85.04 53.284Z"/><path fill="#0F0" d="M-2934-3320v5233.073c11.15.83 13.939-9.342 19.061-15.493a174731.311 174731.311 0 0 0 293.068-351.489L-1647.6 376.177c6.08-7.29 12.08-14.652 18.75-22.783-13.89-60.308-26.21-120.887-49.29-178.725a135.417 135.417 0 0 0-16.8-31.434c-14.61-19.463-29.88-23.353-52.04-13.342a158.7 158.7 0 0 0-32.07 20.443c-16.27 12.702-32.09 26.003-48.51 38.515-46.2 35.175-99.17 26.994-132.882-20.183-31.809-44.566-30.975-105.904 2.025-154.301 21.206-30.985 50.367-52.718 83.777-68.7 146.94-70.35 349.89-56.908 491.78 77.781 65.9 62.549 108.15 139.09 129.02 226.622 61.86 259.416 122.18 519.302 183.09 778.909 15.61 66.47 31.27 132.908 46.98 199.338.88 3.76 1.96 7.48 3.31 12.651h555c6.38-6.48 7.15-15.492 9.79-23.643 53.87-171.094 106.22-342.698 161.81-513.252 58.99-181.105 146.72-346.438 280.27-484.508C105.54 96.528 246.76 11.596 416.55-19.448c179.89-32.935 349.8-6.48 503.08 97.984 95.14 64.869 161 152.131 189.61 265.277a408.226 408.226 0 0 1 11.7 120.507c-3.12 64.679-46.98 119.156-110.67 137.169-36.6 10.411-73.87 10.601-110.87 2.76-47.99-10.151-80.46-39.105-98.76-84.421-12.39-30.675-15.94-62.92-17.73-95.544a551.795 551.795 0 0 0-22.28-126.298C696.47 79.946 440.57 35.55 292.92 181.68c-33.07 32.735-59.43 70.25-81.9 110.686A1278.735 1278.735 0 0 0 110.5 526.118c-67.1 211.04-133.71 422.23-199.83 633.59-8.32 26.353-16.42 52.736-25.31 81.35h727.69c47.29-150.44 94.56-300.842 141.82-451.193h347.87L962.4 1238.198c19.39 5.6 369.31 7.701 425.64 2.84 1.14-1.99 2.38-3.93 3.71-5.79 126.29-168.764 288.31-294.042 474.75-389.285 180.06-92.013 371.29-147.75 571.84-170.934 121.04-14.032 242.37-17.392 363.57-1.31 94.48 12.562 185.44 36.955 267.69 86.762 95.31 57.698 164.27 137.19 193.69 246.525 22.73 84.452 15.04 168.453-9.81 251.385-9.08 30.334-19.78 60.098-36.05 89.312H1586.94c-10.55 29.385-13.72 58.549-16.27 87.553a529.04 529.04 0 0 0 10.15 161.042c13.44 61.169 45.27 111.256 90.23 153.682 62.47 58.878 137.05 96.983 217.32 124.717 132.41 45.737 269.25 59.719 408.42 53.318a1293.231 1293.231 0 0 0 430.62-94.154c240.65-97.853 459.71-233.152 670.65-386.524l229.09-738.183h347.25c-34.93 119.577-72.98 236.723-109.32 358.66 12.3-6.81 17.56-15.362 23.83-22.513 53.68-60.748 108.86-120.007 170.93-172.414a1148.862 1148.862 0 0 1 138.98-100.254c4.27-2.62 8.32-10.272 15.13-3.57V-3320Zm2329.15 1366.391c-5.69 2.21-11.1 1.31-17.49.74v-127.968c5.63-1.79 11.08-1.03 17.49-.48Zm97.19.76h-19.35c-20.39-42.136-40.91-84.571-62.26-128.678h21.26l50.89 106.925c17.11-37.055 33.19-71.9 49.37-106.885h21.25Zm199.6-.21h-122.9v-128.278h117.89c2.62 4.761 1.86 9.722.31 15.653h-99.19v37.795h96.26a20.22 20.22 0 0 1 .22 16.512h-96.64v42.226h104.14a24.915 24.915 0 0 1-.09 16.092Zm1254.68-128.158h118.23c2.39 4.761 1.1 9.722.79 15.793h-99.41c-1.88 12.731-.88 24.383-.73 37.605h96.92a23.198 23.198 0 0 1-.19 16.392h-96.26v42.206h104.05c2.39 6.08 1.46 10.682 1.1 16.082h-124.5Zm-14.55 128.108H828.52v-127.998a43.266 43.266 0 0 1 18.37.29v111.286h83.58c3.84 5.72 2.45 10.682 1.6 16.422Zm-526.45-583.17h8.93c1.09-.04 2.17-.158 3.24-.357a42.54 42.54 0 0 0 30.71-19.064 36.924 36.924 0 0 0 5.91-19.422v-191.284a36.87 36.87 0 0 0-4.62-15.727c-6.41-12.63-21.44-23.83-35.07-23.83h-8.94v-8.626h5.39c20.42.19 48.25-14.608 58.97-26.785a55.238 55.238 0 0 0 8.93-13.202c0-.787-5.07-.834-10.38-2.216-17.9-4.767-29.84-25.45-25.69-42.894 4.27-18.04 18.32-29.86 36.19-29.716 24.59.19 40.75 20.303 36.82 44.586-3.79 23.353-24.35 47.946-55.47 62.506l-19.59 9.174h221.97v7.03h-13.39c-9.53 0-11.25 2.168-15.03 4.766a14.76 14.76 0 0 0-4.77 9.008c0 4.36 53.23 110.594 54.68 109.141 1.46-1.453 51.73-65.794 74.13-94.82a251.154 251.154 0 0 1 20.7-24.473c8.99-8.96 16.3-13.368 25.97-16.085 23.83-6.72 50.04 1.811 62.62 16.943 11.29 13.678 15.49 23.83 15.63 41.678.17 21.614-2.38 25.856-40.81 75.065-16.68 21.447-58.9 75.422-93.6 119.889a394568.59 394568.59 0 0 1-115.55 148.032c-28.86 36.937-52.42 69.107-52.42 71.656 0 9.914 28.59 28.596 55.82 36.558 58.4 16.922 109.91-10.912 124.52-67.298 3.79-14.608 4.55-45.491 1.45-58.812-1.04-4.576-2.38-9.294-1.52-9.008l45.27 12.796c.88.238 0 6.744-1.6 13.56-8.26 36.96-31.69 71.942-64.33 96.226-35.86 26.568-75.79 38.46-122.16 35.459-25.71-1.67-38.55-4.77-61.52-15.992a138.217 138.217 0 0 1-70.98-82.641c-6.6-21.447-6.57-55.715 0-77.519 5.77-18.945 16.85-40.51 28.43-54.452 3.45-3.87 6.51-8.069 9.15-12.534H405.86Zm377.34 571.469-1.98-1.98c-23.23 17.062-49.15 21.062-76.7 14.301-32.97-7.94-53.68-37.205-51.44-71.49 2.03-30.984 27.74-56.407 61.71-60.338 22.88-2.65 45.27-.69 65.24 12.132 7.72 4.95 14.54 10.861 18.63 19.912-4.76 4.771-11.29 4.631-16.87 6.721-20.37-24.133-45.74-27.994-73.67-19.532-19.39 5.88-32 19.062-34.31 39.645-2.38 21.233 5.1 38.866 23.66 50.667 19.99 12.722 50.51 11.602 69.72-2.24 8.96-6.48 15.37-14.582 15.8-27.764h-53.5c-3.93-5.65-2.57-10.291-2.07-15.652h71.74v66.72c-4.76 2.38-9.34.84-14.29.93-.62-4.551-1.12-8.362-1.62-12.202Zm-155.97-116.507v127.348c-4.76 3.45-10.53.6-16.51 2.38l-101.76-106.494v104.424c-6.32 2.19-11.37 1.55-17.37.81v-128.588h19.41l99.41 104.635v-103.634c5.69-2.33 10.77-1.43 16.7-.88Zm-167.57.19v127.988a42.143 42.143 0 0 1-17.54 0v-127.698c5.27-1.81 10.99-1.22 17.42-.29Zm-61.67 87.123c-1.26-9.122-8.14-12.942-16.34-14.872-19.06-4.481-38.53-4.191-57.73-6.721-21.28-2.78-33.36-12.932-34.41-29.545-1-14.492 4.77-26.213 18.09-31.674 31.97-12.982 63.92-12.842 94.71 4.34 5.63 3.001 10.09 7.812 12.65 13.653l-15.77 6.7c-19.88-17.352-43.39-20.522-68.65-15.392-3.1.61-6.14 1.52-9.08 2.71-7.91 3.341-13.46 8.772-12.58 17.943.93 9.532 8.41 13.182 16.54 14.302 16.08 2.17 32.28 3.34 48.44 5.07 4.71.501 9.39 1.301 14.01 2.391 17.25 4.1 27.4 14.292 29.04 28.594 1.91 16.873-5.41 31.365-21.01 38.936-19.18 9.341-39.79 9.531-60.47 7.15-18.8-2.17-36.58-7.15-50.04-21.442a70.292 70.292 0 0 1-5.1-7.151l16.11-7.151c22.66 19.973 49.25 23.543 77.74 18.042 4.64-.99 9.07-2.73 13.13-5.17 7.56-4.551 11.87-11.542 10.61-20.713Zm-539.98 37.605c-18.44 8.621-37.76 7.911-57.04 3.45-17.44-4.02-28.12-15.132-32.12-32.664 4.55-4.2 10.29-3.86 15.51-4.98 15.01 23.612 33.36 30.783 57.76 22.682 11.72-3.91 18.77-13.292 17.65-23.563-1.19-11.112-8.98-18.283-22.01-19.063-8.63-.6-17.32-.12-25.43-.12a17.11 17.11 0 0 1-1.42-13.872c9.1-.88 18.1-1.38 26.97-2.79 8.86-1.4 15.94-5.76 16.51-15.752.57-10.362-5.08-17.013-14.54-20.683-21.13-8.221-40-.24-50.63 21.683l-14.53-2.93c1.38-17.253 11.65-29.305 28.85-33.765 13.49-3.6 27.69-3.6 41.18 0 13.55 3.67 25.06 10.321 28.59 25.283 3.5 14.302-1.77 25.264-15.63 33.625 9 4.76 15.87 9.771 19.3 18.133 7.17 17.302-.77 36.745-19.09 45.326Zm171.98 3.22-42.89-50.047h-62.4v50.587h-18.44v-128.918c33.98 0 67.67-.86 101.26.31 19.71.69 32.41 14.042 34.34 31.645 2.38 22.643-6.13 34.345-33.15 43.206l46.25 53.217Zm40.51 1.04v-129.038c28.59 0 56.82-2.09 84.58.55 30.57 2.93 49.75 27.384 51.11 58.909 1.38 32.054-16.01 57.788-45.27 65.299-29.26 7.5-59.83 2.93-90.45 4.26Zm1063.21 211.81c0 3.55-.33 7.141-.57 11.502H153.94v-57.428h979.65c-.09 15.662-.07 30.794-.14 45.926Zm137.05-212.43c-7.67-8.91-10.31-21.443-17.82-31.404h-77.86l-16.51 31.314h-21.28c22.66-43.536 44.74-85.932 66.71-128.208 7.1-1.17 14.33-1.26 21.45-.26l66.35 128.678Zm139.32 0h-102.81v-127.918c5.14-2.69 10.93-.45 18.03-1.43v112.816h84.76a23.862 23.862 0 0 1 0 16.532Zm124.64-1.71c-35.74 4.62-71.79 1.26-108.58 2.22v-129.308c33.14 0 65.59-1.14 97.93.41 23.44 1.09 35.38 16.463 33.35 37.316-1 9.841-6.72 16.392-15.15 22.133 14.3 6.94 21.94 17.062 21.66 32.654-.41 18.203-11.13 32.235-29.24 34.505Zm187.39-36.775c-.62 16.042-10.17 28.294-25.4 34.295a103.147 103.147 0 0 1-77.6.72c-16.89-6.581-28.11-18.763-28.76-37.015-1.02-28.994-.28-58.068-.28-87.973 6.62-.77 12.05-1.41 18.58.61v71.64c0 27.714 8.08 37.316 35.74 42.056a81.023 81.023 0 0 0 36.46-2.21c15.6-4.53 22.73-13.992 22.82-30.414.19-27.044 0-54.118 0-81.022 7.01-2.26 12.77-1.28 18.75-.9 0 30.525.81 60.409-.33 90.213Zm187.97 37.375c-5.12 2.62-10.41 1.9-16.68.38v-100.874l-2.71-.91c-16.4 33.965-32.79 67.92-49.06 101.594-6.01 2.26-11.46 1.38-17.87.88l-50.8-103.284-1.29 1.17c0 .29-.16.5-.5.48v100.534c-4.95 2.69-10.27 1.86-16.41.55v-127.798h25.73l52.13 107.045c18.18-37.275 35.29-72.33 52.42-107.425h24.99Z"/><path fill="#0F0" d="M736.59-2582.033c9.37 3.79 14.87 1.311 25.57-11.557 28.23-33.934 81.01-103.47 84.73-111.739 19.99-44.062-28.6-91.102-73.25-70.87-12.31 5.6-15.63 9.126-48.56 51.71-27.66 35.745-32.49 45.516-29.73 60.1 1.83 9.39 37.57 80.88 41.24 82.356ZM186.17-2017.948c.15-24.473-12.53-43.546-33.52-46.616-20.99-3.07-41.72-1.21-63.26-.81v96.533c20.73.38 40.5 1.67 60.07-2.09 22.68-4.27 36.57-22.503 36.71-47.017Z"/><path fill="#000200" d="M-2312.624 3469.36h.143l-.191-.19s.024 0 .048.19Z"/><path fill="#000200" d="M4198.87 772.633a1148.077 1148.077 0 0 0-138.98 100.254c-62.07 52.427-117.25 111.666-170.93 172.414-6.32 7.151-11.58 15.702-23.83 22.513 36.34-121.937 74.39-239.083 109.32-358.66h-347.3l-229.09 738.183c-210.94 153.372-430.1 288.67-670.65 386.524a1293.231 1293.231 0 0 1-430.62 94.154c-139.27 6.4-276.01-7.581-408.42-53.318-80.27-27.734-154.87-65.84-217.32-124.717-44.98-42.426-76.79-92.513-90.23-153.682a529.04 529.04 0 0 1-10.15-161.042c2.55-29.004 5.72-58.168 16.27-87.553h1630.44c16.27-29.214 26.97-58.978 36.05-89.312 24.85-82.932 32.55-166.813 9.81-251.385-29.42-109.336-98.4-188.827-193.68-246.525-82.25-49.807-173.22-74.2-267.7-86.762-121.2-16.082-242.53-12.722-363.57 1.31-200.57 23.233-391.8 78.921-571.84 170.934-186.39 95.313-348.46 220.521-474.74 389.285a66.24 66.24 0 0 0-3.72 5.79c-56.23 4.771-406.24 2.76-425.64-2.84l140.34-448.333H754.82c-47.24 150.321-94.51 300.722-141.82 451.193h-727.59c8.89-28.594 16.99-54.997 25.3-81.35a670917.51 670917.51 0 0 1 199.84-633.59 1278.735 1278.735 0 0 1 100.52-233.752c22.47-40.506 48.82-77.951 81.89-110.686C440.69 35.55 696.52 79.946 760.68 297.986a551.795 551.795 0 0 1 22.28 126.298c1.79 32.625 5.34 64.87 17.73 95.544 18.3 45.276 50.77 74.27 98.76 84.421 37.03 7.841 74.27 7.651 110.86-2.76 63.69-18.113 107.56-72.49 110.68-137.17a408.226 408.226 0 0 0-11.7-120.506c-28.59-113.146-94.47-200.408-189.61-265.277C766.4-25.93 596.49-52.383 416.6-19.448 246.81 11.526 105.47 96.528-13.54 219.565c-133.43 138.07-221.28 303.453-280.27 484.508-55.59 170.554-107.94 342.158-161.81 513.252-2.58 8.151-3.41 17.163-9.79 23.643h-555c-1.36-5.17-2.38-8.89-3.31-12.651-15.68-66.43-31.36-132.869-47.03-199.338-60.95-259.747-121.28-519.493-183.14-778.84-20.87-87.532-63.11-164.072-129.02-226.621-141.89-134.689-344.84-148.13-491.78-77.78-33.36 15.991-62.569 37.604-83.775 68.699-33.047 48.397-33.834 109.615-2.025 154.301 33.71 47.177 86.68 55.358 132.88 20.183 16.42-12.512 32.24-25.813 48.51-38.515a158.7 158.7 0 0 1 32.07-20.443c22.16-10.011 37.43-6.12 52.04 13.342a135.417 135.417 0 0 1 16.8 31.434c22.99 57.738 35.4 118.317 49.3 178.725-6.68 8.131-12.68 15.492-18.76 22.783l-974.221 1169.844a460909.157 460909.157 0 0 1-293.068 351.39c-5.122 6.15-7.91 16.322-19.061 15.492v414.638c54.801-9.532 109.221-19.603 164.547-25.394a1424.511 1424.511 0 0 1 325.425 3.38c193.21 24.044 375.246 85.472 551.228 166.814 3.58 1.64 6.98 3.64 9.84 5.17 2.1 5.361-.93 8.222-3.48 11.172-205.383 237.273-392.946 488.518-578.985 740.944a25220.105 25220.105 0 0 0-410.271 573.09c-5.79 8.271-13.7 15.512-15.416 26.214h352.635c28.592-46.277 65.213-85.792 103.646-123.658a814.304 814.304 0 0 1 227.544-158.182c94.354-44.296 191.471-52.587 292.517-30.214 92.93 20.563 179.92 56.408 265.65 96.274 108.65 50.547 214.22 107.235 321.25 160.992 27.66 13.892 55.61 27.164 83.13 41.296 7.44 3.82 16.87 4.96 21.45 13.492h934c.46-1.84.77-3.71.93-5.601-2.64-2.38-6.41-2.93-9.98-3.76-170.48-39.536-333.58-101.325-495.72-165.714-172.43-68.44-342.48-142.79-516.25-207.969-100.21-37.605-201.24-73.23-306.08-95.483-207.67-44.016-408.408-26.214-600.141 69.1-29.903 14.851-57.828 33.004-86.086 50.616-3.479 2.38-6.576.74-9.531-.86h-.143l.262.29c.334 0 .477.31.453.5l1.668 1.81-2.025-1.57H-2312.458c-.381 1.07-2.049-.41 0 0a.882.882 0 0 0 0-.29l-.5-.38c.119-.16.246-.31.381-.45l.334.14 6.886-2.88a110.648 110.648 0 0 1 6.647-12.422c201.717-283.57 412.61-559.998 643.51-820.605 7.79-8.79 14.3-19.062 24.85-25.023 9.1 1.93 16.25 7.15 23.83 11.441 83.55 47.377 167.06 94.804 250.54 142.29 96.33 54.688 196.45 100.344 304.83 125.658 92.45 21.583 185.35 27.284 278.01 1.85 168.74-46.296 262.36-184.296 283.8-325.325 5.51-36.295 6.75-72.7.74-109.116a64.405 64.405 0 0 1 2-30.454c111.51-354.27 222.86-708.549 334.05-1062.819 1.19-3.72 2.62-7.39 4.46-12.511h723.76c4.26 8.79-1.69 16.682-4.12 24.353a792147.564 792147.564 0 0 1-248.61 792.611c-23.52 74.95-47.65 149.751-70.29 224.931-28.59 94.674-33.36 190.327-8.46 286.7a288.674 288.674 0 0 0 24.09 61.96c44.32 84.431 116.3 122.796 209.53 124.227 81.16 1.24 156.59-21.613 228.74-57.028 28.45-13.942 55.13-30.975 83.65-47.657 4.51 11.172-1.55 19.563-4.1 27.804a399895.329 399895.329 0 0 1-205.88 663.953A224192.495 224192.495 0 0 0 463.68 3829h347.87l180.66-583.602a6880.637 6880.637 0 0 0 288.13-124.217c18.35 9.531 32.24 23.823 46.58 37.315 80.13 75.21 136.65 166.523 179.85 266.607 53.23 123.347 84.13 252.596 101.47 385.524.81 6.051 3.55 12.462-.88 18.373h381.23c-12.32-39.556-31.48-76.261-49.51-113.166-74.18-152.161-163.69-294.161-280.3-417.819-80.2-85.042-170.69-156.682-276.27-208.179-3.98-1.95-8.96-2.81-11.46-8.741 466.55-217.93 901.67-482.868 1271.75-849.089-20.73-5.48-484.02-7.27-527.26-2.79-7.79 11.611-16.11 24.093-24.54 36.535-102.6 151.251-223.52 286.7-356.57 411.518-149.94 140.6-311.65 265.847-491.07 367.2a1509.262 1509.262 0 0 1-188.66 90.794c-8.62 3.41-17.01 8-30.73 8.5 112.17-361.71 223.68-721.33 335.95-1083h-345.84c-6.91 7.37-7.89 18.062-10.87 27.623a247761.64 247761.64 0 0 0-139.1 448.003 512.699 512.699 0 0 1-22.2 60.288c-31.53 69.56-84.66 104.405-173.44 96.014-3.95-.36-7.84-1.19-11.77-1.81-51.8-8.252-81.7-39.056-88.16-91.633-5.6-45.657 1.31-90.363 11.92-134.54 19.92-82.67 48.22-162.852 73.55-243.903 88.76-284.11 177.8-568.14 267.12-852.09 1.88-6.02 3.98-11.911 6.43-19.392h388.62c-.36 11.431-7.01 19.732-11.2 28.594-41.96 88.692-67.93 181.445-68.65 279.999-.83 111.095 28.88 211.95 106.13 295.111 51.23 55.168 114.53 92.603 183.3 121.397 76.72 32.095 157.25 50.227 239.24 61.169a1502.045 1502.045 0 0 0 290.04 9.531c118.61-7.151 234.07-32.405 347.42-67.73 156.06-48.636 302.74-118.886 446.56-195.397a4809.86 4809.86 0 0 0 487.52-297.882c5.78-4 10.34-12.201 19.51-9.39v-.11c-1.19-.67-1.05-1.431.45-2.221.14 0 .76.6.98 1l.24.48c.45.35.55.95 0 0-.36-.31-1-.46-1.67.74.11.04.23.1.33.16h.17l-.64-.19c1.14 11.532-4.41 21.453-7.63 31.955a613663.552 613663.552 0 0 1-157.83 509.34c-2.78 8.962-7 17.733-6.79 27.385 16.9 5.17 314.4 6.62 343.99 1.81 5.57-6.911 6.62-15.822 9.17-24.023 77.92-250.825 155.14-501.85 233.79-752.456 36.81-117.266 92.38-224.641 179.56-313.194 58.66-59.578 122.85-112.735 194.66-155.991 21.44-12.912 43.2-26.454 68.88-30.315V769.012c-6.52-6.65-10.58 1-14.84 3.62Zm-2562.65 444.602c53.46-100.324 130.26-179.295 223.54-243.064 98.14-67.02 206.79-110.595 320.44-142.79 104.29-29.534 210.32-48.527 319.04-49.497 87.99-.79 174.44 8.691 256.12 44.366 71.86 31.365 128.04 79.281 156.73 154.422 14.63 38.315 17.25 79.041 18.77 119.487a475.09 475.09 0 0 1-12.82 125.227c-1.26 5.381-2 10.962-7.41 16.203H1628.21c-2.55-10.462 4.15-17.203 8.01-24.354Zm-3236.38-742.684c60.76 258.716 120.04 511.172 179.27 763.507-19.37 5.79-788.517 6.581-815.632.6Zm-166.6 1883.594c-8.86 0-15.82-5.821-23.44-9.532-130.93-64.769-262.547-127.757-401.242-174.794-151.657-51.527-306.792-86.792-466.169-102.064a1646.05 1646.05 0 0 0-242.65-4.53c-6.267.33-12.58 2.38-24.232-2.381l596.596-716.33h932.907c54.47 231.772 108.99 463.804 164.07 698.217-202.91 63.41-378.84 170.814-535.84 311.414Zm1101.92 235.083c-23.83 77.09-77.58 121.527-156.83 134.919-55.99 9.531-110.79.46-165.1-12.392-90.8-21.443-176.6-56.948-261.42-94.983-86.21-38.676-170.51-81.262-254.52-124.468-4.76-2.5-10.2-4.29-15.08-11.201 16.92-16.963 33.93-34.545 51.54-51.518 78.46-75.68 167.88-133.448 274.41-160.542 141.91-36.175 275.77-16.992 398.74 64.629 46.27 30.694 84.32 69.87 110.17 119.717 22.33 43.046 32.67 88.652 18.09 135.839Zm-67.24-495.38c-32.91-20.142-64.19-36.775-99.24-49.757l-164.17-698.867h498.53Z"/><path fill="#0F0" d="M3950.45 1055.452c-87.18 88.553-142.74 195.928-179.55 313.194-78.63 250.595-155.88 501.62-233.79 752.456-2.55 8.2-3.6 17.112-9.17 24.023-29.6 4.76-327.1 3.36-343.99-1.81-.22-9.532 4-18.423 6.79-27.384a503937.427 503937.427 0 0 1 157.83-509.341c3.21-10.442 8.77-20.423 7.62-31.955-9.17-2.81-13.72 5.38-19.51 9.391a4808.667 4808.667 0 0 1-487.52 297.872c-143.82 76.49-290.49 146.75-446.56 195.408-113.34 35.314-228.73 60.508-347.42 67.719-96.76 6.2-193.89 3.01-290.04-9.531-82.1-10.932-162.52-29.064-239.24-61.169-68.76-28.784-132.07-66.22-183.3-121.387-77.25-83.172-106.96-184.016-106.12-295.111.71-98.564 26.68-191.307 68.64-280 4.19-8.89 10.84-17.182 11.2-28.603H927.71c-2.39 7.41-4.55 13.371-6.44 19.402-89.11 284-178.15 568.03-267.12 852.09-25.32 81.02-53.63 161.232-73.55 243.894-10.65 44.186-17.56 88.892-11.91 134.549 6.43 52.567 36.33 83.401 88.16 91.622 3.93.62 7.81 1.46 11.77 1.81 88.77 8.392 141.91-26.443 173.43-96.003a512.903 512.903 0 0 0 22.21-60.298c46.3-149.331 92.67-298.662 139.1-448.003 2.97-9.531 3.95-20.253 10.86-27.614h345.68c-112.18 361.67-223.69 721.281-335.96 1083.002 13.73-.5 22.11-5.1 30.74-8.511a1507.139 1507.139 0 0 0 188.66-90.793c179.41-101.344 341.13-226.502 491.07-367.192 133.04-124.827 253.96-260.276 356.56-411.517 8.44-12.442 16.68-24.934 24.54-36.535 43.25-4.48 506.53-2.69 527.26 2.79-370.07 366.211-805.19 631.159-1271.74 849.079 2.38 5.94 7.48 6.801 11.46 8.751 105.57 51.497 196.07 123.127 276.27 208.18 116.6 123.657 206.12 265.657 280.29 417.808 18.04 36.985 37.2 73.61 49.52 113.166h271.62c38.9-126.658 77.82-253.316 116.75-379.963 122.85-398.056 245.76-796.102 368.74-1194.148 2.55-8.27 5.31-16.492 7.67-23.833 8.39-5.62 16.56-3.55 24.28-3.55 478.78-.09 957.56-.09 1436.35 0V869.097c-25.69 3.86-47.42 17.402-68.89 30.314-71.67 43.296-136 96.443-194.64 156.041Z"/><path fill="#0F0" d="M786.18 2787.485c2.55-8.241 8.6-16.682 4.09-27.804-28.59 16.562-55.2 33.645-83.65 47.657-72.22 35.415-147.73 58.268-228.74 57.028-93.23-1.43-165.21-39.796-209.53-124.228a288.674 288.674 0 0 1-24.09-61.958c-24.9-96.374-20.11-192.027 8.46-286.7 22.71-75.181 46.77-149.981 70.29-224.932 82.92-264.257 165.78-528.524 248.58-792.801 2.39-7.741 8.39-15.562 4.13-24.353h-723.95c-1.84 5.12-3.27 8.79-4.46 12.511-111.3 354.27-222.65 708.54-334.05 1062.82a64.278 64.278 0 0 0-2 30.453c6 36.416 4.76 72.82-.74 109.116-21.44 141.03-115.06 279.029-283.8 325.325-92.66 25.434-185.56 19.733-278.01-1.86-108.39-25.304-208.51-70.96-304.84-125.648-83.53-47.406-167.05-94.843-250.53-142.29-7.53-4.27-14.68-9.53-23.83-11.441-10.46 6.03-17.06 16.232-24.85 25.023-230.91 260.677-441.796 537.036-643.513 820.605-2.478 4-4.698 8.141-6.647 12.422l-6.886 2.88c3.074 1.6 6.171 3.17 9.531.86 28.258-17.612 56.183-35.745 86.085-50.617 191.733-95.323 392.47-113.025 600.15-69.11 105 22.264 205.93 57.889 306.19 95.494 173.77 65.17 343.82 139.52 516.26 207.96 162.21 64.338 325.23 126.177 495.71 165.712 3.57.84 7.34 1.31 9.98 3.77.83.751 1.51 1.661 2 2.671.19.4-1.9 1.93-2.93 2.93H91.82c-1.72-1.15-4.77-2.24-2.03-4.65 3.02-2.45 6.4-4.44 10.01-5.89 83.4-35.436 135.81-99.015 165.98-182.866a458.246 458.246 0 0 0 19.61-73.47c2.38-13.373 3-26.804-1.05-40.056-7.46-24.474-25.5-32.295-47.89-20.353-17.37 9.271-28.95 24.373-39.1 40.706-7.15 11.431-13.3 23.613-21.45 34.214-27.54 35.745-69.4 48.777-112.62 35.485-83.97-25.833-144.32-135.829-60.21-224.671 69.86-73.87 178.15-100.224 265.9-63.479 75.08 31.454 118.18 90.333 131.93 168.624 20.9 119.146-7.39 226.661-85.63 320.034l-13.61 16.393h162.02c38.86-125.868 77.73-251.726 116.61-377.563 68.62-221.331 137.25-442.652 205.89-663.953Zm-1082.57 849.639h-346.13a1868552.325 1868552.325 0 0 1 487.07-1576.74h343.93c-.57 17.992-468.74 1540.085-484.87 1576.74ZM3094.15 2357.215h-32.34L2916.97 2826.5c.64 1.66 1.44 3.25 2.38 4.761.65.49 1.4.81 2.2.93 1.52.33 3.09.55 4.76.76h872.06c1.59 0 3.19.15 4.76.26.81.07 1.61.21 2.39.43.76.22 1.5.55 5.31 2.03-7.15 34.055-20.18 66.72-29.59 102.255h-894.96c-8.03 8.701-9.03 17.632-11.55 25.804-85.56 278.469-171.02 556.948-256.38 835.457-2.9 9.53-9.12 18.732-5.5 29.604h886.35c-1.41-10.922 7.7-8.081 12.72-8.922 33.67-5.43 67.15-11.911 100.36-19.532 102.46-23.834 201.24-57.438 292.45-110.906 39.84-23.353 77.06-50.287 109.6-83.411a271.59 271.59 0 0 0 43.44-56.398 143.876 143.876 0 0 0 16.32-41.966c7.27-35.345-8.51-63.22-42.89-74.21-13.51-4.291-27.8-6.102-41.81-8.742a205.731 205.731 0 0 1-56.26-18.642c-48.61-25.014-79.79-62.65-81.25-119.337-1.55-59.338 25.5-103.875 76.25-133.449 37.31-21.733 78.03-24.613 119.89-15.822 75.49 15.892 129.36 57.188 156.59 131.068 3.79 10.292 2.07 22.163 9.68 31.145v-943.362c-10.3.34-20.61.93-30.98.93-363.09 0-726.14-.01-1089.16-.02ZM-2465.449 3229.657c186.063-252.436 373.626-503.68 578.989-740.954 2.55-2.95 5.57-5.81 3.48-11.171-2.86-1.53-6.27-3.531-9.84-5.171-175.986-81.262-358.022-142.7-551.232-166.814a1425.08 1425.08 0 0 0-325.425-3.38c-55.302 5.86-109.722 16.012-164.523 25.544V3829h42.888c1.716-10.752 9.53-17.993 15.416-26.214a30609.504 30609.504 0 0 1 410.247-573.13Z"/><path fill="#000200" d="M2777.66 2227.627c-7.72 0-15.9-2.08-24.28 3.55-2.39 7.291-5.13 15.512-7.67 23.823-122.92 397.986-245.83 795.992-368.75 1194.028A161712.286 161712.286 0 0 0 2260.21 3829h352.64c-3.62-10.872 2.6-20.093 5.5-29.594 85.3-278.56 170.76-557.048 256.38-835.457 2.52-8.172 3.52-17.113 11.55-25.814h894.84c9.41-35.475 22.47-68.2 29.59-102.254-3.81-1.47-4.55-1.81-5.31-2.02-.78-.22-1.58-.37-2.39-.43-1.57 0-3.17-.26-4.76-.26h-872.06c-1.55-.22-3.12-.43-4.76-.77-.8-.12-1.55-.44-2.19-.92-.95-1.511-1.75-3.111-2.39-4.772l144.84-469.285h1121.33c10.3 0 20.61-.59 30.98-.93v-128.678c-478.77-.22-957.55-.29-1436.34-.19Z"/><path fill="#0F0" d="M1608.24 3810.628c-17.34-132.848-48.24-262.127-101.47-385.524-43.2-100.084-99.72-191.397-179.85-266.607-14.29-13.462-28.23-27.714-46.58-37.315-95.31 43.696-191.35 85.112-288.13 124.217l-180.66 583.602h795.81c4.43-5.911 1.69-12.322.88-18.373ZM-1244.69 3815.509c-27.52-14.132-55.47-27.404-83.13-41.296-107.03-53.757-212.61-110.445-321.26-160.992-85.77-39.866-172.83-75.711-265.64-96.274-101.048-22.373-198.165-14.082-292.519 30.214a814.409 814.409 0 0 0-227.569 158.182c-38.456 37.866-75.077 77.381-103.669 123.658h247.797c-23.398-70.7-2.669-125.538 62.164-162.993 34.548-19.973 71.599-29.244 111.723-24.093 46.128 5.91 79.081 30.114 99.929 71.32 14.296 28.193 18.609 58.668 20.491 89.692.524 8.681.762 17.373 1.144 26.074h771.979c-4.59-8.531-14.03-9.672-21.44-13.492Z"/><path fill="#000200" d="M4047.74 3137.764c-41.87-8.791-82.59-5.91-119.9 15.822-50.65 29.474-77.7 74.02-76.24 133.449 1.45 56.688 32.64 94.323 81.25 119.337a205.666 205.666 0 0 0 56.25 18.642c14.01 2.64 28.31 4.45 41.82 8.741 34.47 10.982 50.25 38.866 42.88 74.21a143.876 143.876 0 0 1-16.32 41.967 271.543 271.543 0 0 1-43.43 56.398c-32.46 33.124-69.67 60.058-109.61 83.411-91.2 53.468-189.94 87.162-292.44 110.906-33.22 7.69-66.72 14.102-100.36 19.532-5.03.84-14.13-2-12.73 8.922h428.88c44.08-31.155 88.16-62.369 126.59-100.544 66.46-65.82 118.02-140.98 147.16-230.673 4.76-14.962 4.76-31.144 12.17-45.276v-152.511c-7.6-8.992-5.88-20.853-9.67-31.145-26.95-73.83-80.82-115.296-156.3-131.188ZM401.07 3492.594c-13.75-78.281-56.85-137.17-131.93-168.624-87.76-36.745-196.05-10.291-265.91 63.489-84.11 88.832-23.82 198.828 60.21 224.661 43.22 13.302 85.09.36 112.63-35.475 8.15-10.611 14.3-22.783 21.44-34.224 10.16-16.323 21.73-31.435 39.1-40.706 22.4-11.912 40.51-4.12 47.9 20.353 4.05 13.252 3.45 26.693 1.04 40.065a457.333 457.333 0 0 1-19.6 73.46c-30.12 83.862-82.54 147.441-165.98 182.876a38.909 38.909 0 0 0-10.01 5.881c-2.81 2.39.31 3.51 2.03 4.65h209.67l13.77-16.372c78.25-93.243 106.53-200.908 85.64-320.034ZM-2016.864 3713.235c-20.848-41.206-53.801-65.41-99.929-71.32-40.124-5.151-77.175 4.12-111.723 24.093-64.833 37.455-85.562 92.293-62.164 162.993h295.451c-.382-8.701-.62-17.393-1.144-26.074-1.882-31.114-6.219-61.499-20.491-89.692Z"/><path fill="#0F0" d="M4054.67 3728.467c-38.53 38.125-82.51 69.39-126.59 100.534H4214v-376.513c-7.43 14.292-7.32 30.354-12.18 45.276-29.14 89.723-80.74 164.883-147.15 230.703ZM-1394.99 1348.443h-933.026l-596.596 716.33c11.65 4.761 17.965 2.781 24.231 2.381a1646.052 1646.052 0 0 1 242.651 4.53c159.496 15.173 314.631 50.538 466.288 102.015 138.695 47.037 270.312 110.025 401.242 174.794 7.62 3.761 14.58 9.532 23.44 9.532 157-140.6 332.93-248.005 535.84-311.504-55.08-234.283-109.6-466.315-164.07-698.078ZM2910.68 1241.589c5.41-5.241 6.15-10.822 7.41-16.203a475.09 475.09 0 0 0 12.82-125.227c-1.52-40.516-4.15-81.172-18.78-119.487-28.59-75.14-84.87-123.057-156.73-154.422-81.67-35.745-168.12-45.276-256.11-44.366-108.72.97-214.75 19.963-319.04 49.497-113.65 32.195-222.3 75.77-320.44 142.79-93.29 63.689-170.08 142.67-223.55 243.064-3.86 7.151-10.55 13.962-8 24.424ZM-1420.89 1238.058c-59.23-252.335-118.51-504.79-179.27-763.507l-636.362 764.127c27.115 5.961 796.262 5.17 815.632-.62ZM-793.1 2337.672c-122.97-81.621-256.83-100.804-398.74-64.63-106.53 27.165-195.95 84.863-274.41 160.543-17.61 16.973-34.62 34.555-51.54 51.518 4.76 6.91 10.24 8.7 15.08 11.201 84.01 43.206 168.31 85.792 254.52 124.468 84.82 38.125 170.62 73.52 261.42 94.983 54.31 12.852 109.11 21.903 165.1 12.392 79.25-13.462 133.05-57.828 156.83-134.92 14.58-47.186 4.24-92.792-18.09-135.838-25.85-49.847-63.78-89.023-110.17-119.717ZM-831.32 2048.091c35.05 12.982 66.33 29.615 99.24 49.757l235.12-748.624h-498.53Z"/><path fill="#35FF13" d="m3357.86 1573.775-.24-.47c-.21-.41-.83-1.08-.98-1.01-1.5.79-1.64 1.55-.45 2.22.67-1.19 1.31-1.05 1.67-.74Z"/><path fill="#35FF13" d="M3357.86 1573.775c.55.95.45.36 0 0ZM3356.67 1574.685c-.11-.07-.22-.12-.34-.17v.12l.65.19ZM-2312.481 3469.29h.143l-.334-.15ZM-2312.648 3470.24c-2.049-.41-.381 1.07 0 0Z"/><path fill="#35FF13" d="M-2312.672 3469.17c-.135.14-.262.29-.381.45l.5.38c.016.1.016.19 0 .29h.524l2.026 1.57-1.668-1.81c0-.19 0-.38-.453-.5l-.262-.29h-.143s-.119-.09-.143-.09Z"/><path fill="#000200" d="M-642.52 3637.124h346.13c16.18-36.655 484.35-1558.748 484.92-1576.74h-343.98c-162.36 525.453-324.71 1051.036-487.07 1576.74Z"/><path fill="#35FF13" d="M524.23-2542.713c8.98 5.48 6.95 6.53 17.72-2.264a180.906 180.906 0 0 1 111.56-40.225c10.86 0 23.52.239 23.52-.5 0-.74-18.42-36.484-39.91-78.64-70.46-138.452-67.46-133.185-78.63-139.024-8.72-4.503-17.2-3.812-29.59 2.384a43.046 43.046 0 0 0-23.28 29.287 36.04 36.04 0 0 0-.93 7.6v188.401c-.05 11.7 10.79 27.786 19.54 32.98Z"/><path fill="#0F0" d="M1183.01-2000.675h61.76l-30.55-61.769Z"/><path fill="#030B02" d="m1832.43-1974.102-52.13-107.045h-25.74v127.798c6.15 1.31 11.46 2.14 16.42-.55v-100.534c0-1.03-.14-2.05-.24-3.55l2.03 1.9 50.8 103.284c6.41.5 11.91 1.38 17.87-.88 16.27-33.674 32.66-67.63 49.05-101.594l2.72.91v100.874c6.2 1.52 11.49 2.24 16.68-.38v-127.658h-24.99c-17.18 35.095-34.29 70.15-52.47 107.425Z"/><path fill="#030B02" d="m1771.48-2054.913-.5.48c.33.02.45-.19.5-.48ZM1541.96-2021.698c8.43-5.741 14.15-12.292 15.15-22.133 2.08-20.853-9.86-36.225-33.36-37.316-32.33-1.55-64.78-.41-97.92-.41v129.398c36.79-.95 72.79 2.38 108.58-2.22 18.15-2.38 28.83-16.362 29.16-34.575.33-15.632-7.43-25.803-21.61-32.744Zm-97.33-42.456c2.95-3.46 6.76-2.39 10.17-2.39 21.44.5 42.89-1.67 64.09 1.12 12.99 1.69 18.59 8.15 18.3 19.062-.28 10.922-6.95 18.333-19.06 18.663-24.09.64-48.2.19-73.6.19Zm81.01 94.763c-10.89 2.6-22.04 1.17-33.07 1.31-15.68.22-31.36 0-47.66 0v-44.226h36.34c14.29.17 28.59 0 42.6 1.07 12.6 1.05 19.3 8.391 20.09 19.233.78 10.841-5.98 19.523-18.4 22.493ZM784.46-1952.609c5 0 9.53 1.4 14.3-.93v-66.73h-71.75c-.5 5.362-1.85 10.012 2.08 15.663h53.49c-.43 13.172-6.84 21.283-15.8 27.764-19.2 13.842-49.72 14.962-69.72 2.24-18.56-11.921-26.01-29.434-23.65-50.667 2.38-20.513 14.91-33.764 34.31-39.655 27.92-8.461 53.3-4.601 73.67 19.542 5.57-2.1 12.03-1.88 16.87-6.72-4.1-9.052-10.92-14.963-18.64-19.923-20.08-12.822-42.36-14.772-65.23-12.132-33.98 3.94-59.57 29.384-61.71 60.338-2.24 34.205 18.46 63.46 51.44 71.49 27.54 6.651 53.46 2.65 76.7-14.292.4-.11.83-.11 1.23 0h1.29c-.19.59-.38 1.19-.55 1.81.55 3.831 1.05 7.652 1.67 12.202ZM41.47-2049.602c-1.93-17.603-14.63-30.975-34.33-31.645-33.6-1.17-67.29-.31-101.26-.31v128.878h18.44v-50.597h62.4l42.89 50.047h24.94l-46.24-53.217c27.04-8.811 35.64-20.513 33.16-43.156Zm-116.75 29.074v-44.796c27.24-.57 53.99-1.41 80.73.45 9.41.64 14.29 7.98 16.08 16.682a20.768 20.768 0 0 1-8.91 22.733 23.914 23.914 0 0 1-13.22 4.77c-24.55.28-49.02.16-74.77.16ZM-412.09-1969.15v-42.227h96.64a20.26 20.26 0 0 0-.21-16.512h-96.26v-37.795h99.19c1.55-5.931 2.38-10.792-.31-15.653h-117.92v128.278h122.9c1.82-5.2 1.86-10.861.12-16.092ZM1070.02-1969.22H965.97v-42.207h96.26a23.198 23.198 0 0 0 .19-16.392H965.5c-.15-13.222-1.15-24.874.73-37.605h99.41c.31-6.071 1.62-10.982-.79-15.793H946.62v128.078h124.5c.36-5.4 1.41-10.001-1.1-16.082ZM205.93-2021.718c-1.36-31.525-20.54-55.978-51.11-58.909-27.76-2.64-56-.55-84.59-.55v129.018c30.62-1.36 60.78 3.26 90.35-4.29 29.57-7.551 46.73-33.215 45.35-65.27Zm-116.54 52.877v-96.533c21.44-.4 42.58-2.24 63.26.81 20.68 3.05 33.67 22.143 33.52 46.616-.14 24.474-14.03 42.746-36.71 47.107-19.57 3.77-39.34 2.48-60.07 2ZM386.84-1973.291a42.792 42.792 0 0 1-13.13 5.17c-28.59 5.501-55.08 1.93-77.74-18.042l-16.11 7.15c1.55 2.491 3.25 4.871 5.1 7.152 13.53 14.292 31.31 19.342 50.03 21.443 20.69 2.38 41.3 2.22 60.48-7.151 15.6-7.571 22.92-22.063 21.01-38.936-1.64-14.302-11.91-24.523-29.04-28.594-4.62-1.09-9.3-1.89-14.01-2.39-16.16-1.73-32.36-2.9-48.44-5.07-8.13-1.1-15.61-4.771-16.54-14.303-.88-9.171 4.77-14.602 12.58-17.942 2.94-1.19 5.98-2.1 9.08-2.71 25.26-5.131 48.77-1.961 68.64 15.391l15.78-6.7a28.392 28.392 0 0 0-12.65-13.652c-30.79-17.183-62.74-17.323-94.71-4.341-13.4 5.44-19.07 17.182-18.09 31.674 1.12 16.683 13.13 26.764 34.41 29.545 19.2 2.53 38.76 2.24 57.73 6.72 8.19 1.93 15.08 5.751 16.34 14.873 1.27 9.13-2.97 16.162-10.72 20.713ZM610.05-1976.802l-99.41-104.635h-19.41v128.488c6 .74 11.05 1.39 17.37-.81v-104.414l101.76 106.495c5.98-1.69 11.67 1.16 16.51-2.39v-127.249c-5.96-.55-11.01-1.45-16.82.88ZM1203.79-2081.057c-22.02 42.276-44.11 84.672-66.72 128.208h21.28l16.51-31.314h77.87c7.5 10.031 10.15 22.493 17.82 31.404h21.09l-66.36-128.678c-7.14-.96-14.39-.84-21.49.38Zm-20.78 80.382 30.97-61.769 30.67 61.769ZM1703.43-2080.506c0 26.853.14 53.927 0 81.02 0 16.423-7.15 25.884-22.82 30.405a80.885 80.885 0 0 1-36.46 2.22c-27.61-4.77-35.74-14.302-35.74-42.055v-71.64c-6.53-2.02-11.91-1.38-18.58-.62 0 29.914-.74 58.978.28 87.982.65 18.252 11.92 30.434 28.76 37.005a103.1 103.1 0 0 0 77.6-.71c15.23-6.011 24.78-18.253 25.4-34.295 1.15-29.804.34-59.688.34-90.173-6.01-.43-11.77-1.4-18.78.86ZM-142.56-2019.928c13.86-8.371 19.06-19.283 15.63-33.625-3.65-14.972-15.16-21.613-28.59-25.283a79.848 79.848 0 0 0-41.18 0c-17.2 4.45-27.47 16.512-28.85 33.764l14.53 2.93c10.63-21.922 29.5-29.903 50.63-21.682 9.54 3.67 15.11 10.321 14.54 20.683-.57 9.981-7.63 14.302-16.51 15.752-8.89 1.45-17.87 1.91-26.97 2.79-1.52 4.611-1 9.652 1.42 13.862 8.11 0 16.68-.47 25.43.12 13.03.91 20.82 8.081 22.01 19.073 1.12 10.261-5.93 19.653-17.65 23.563-24.38 8.101-42.75.93-57.76-22.683-5.22 1.12-10.96.78-15.51 4.98 4 17.533 14.68 28.595 32.12 32.665 19.28 4.461 38.6 5.171 57.04-3.45 18.44-8.631 26.21-28.024 19.06-45.396-3.52-8.292-10.39-13.422-19.39-18.063ZM-517.07-1974.602l-50.94-106.925h-21.3c21.44 44.107 41.86 86.542 62.26 128.678h19.34l61.05-128.678h-21.09c-16.13 35.025-32.21 69.79-49.32 106.925ZM846.89-2080.837a43.106 43.106 0 0 0-18.37-.29v128.018h103.55c.85-5.74 2.24-10.701-1.6-16.422h-83.58ZM1325.04-1969.29v-112.817c-7.15.98-12.89-1.26-18.04 1.43v127.918h102.82a23.862 23.862 0 0 0 0-16.532ZM441.76-1953.209a42.143 42.143 0 0 0 17.54 0v-127.918c-6.43-.93-12.15-1.52-17.54.24ZM-622.34-2080.837v127.968c6.39.57 11.8 1.47 17.49-.74v-127.758c-6.41-.55-11.86-1.31-17.49.53Z"/><path fill="#35FB13" d="m1770.98-2054.433.5-.48 1.29-1.17-2.03-1.9c.1 1.5.17 2.52.24 3.55ZM782.1-1966.69c-.4-.11-.83-.11-1.24 0l1.98 1.97c.17-.62.36-1.21.55-1.81Z"/><path fill="#080D08" d="M153.94-1786.255v57.428h979.03c.24-4.43.58-7.951.58-11.502v-45.926Zm161.3 51.997H160.68v-46.657h154.56Zm162.79.14H322.7v-46.346h155.28Zm161.83.15H485.65v-46.807h154.21Zm162.02-.67H647.46v-45.796h154.42Zm162.47 0H809.48v-45.726h154.87Zm162.02.38h-154.2v-46.517h154.2Z"/><path fill="#01F8F8" d="M322.6-1734.118h155.38v-46.346H322.65Z"/><path fill="#F302F2" d="M485.56-1733.968h154.2v-46.807h-154.2Z"/><path fill="#0C00F3" d="M972.29-1734.158h154.2v-46.617h-154.2Z"/><path fill="#0F0" d="M647.46-1734.638h154.42v-45.796H647.46Z"/><path fill="#F30200" d="M809.6-1734.538h154.87v-45.826H809.6Z"/><path fill="#F7F701" d="M160.58-1734.258h154.57v-46.657H160.58Z"/><path d="M523.37-2529.034a80.11 80.11 0 0 1-9.15 12.534c-11.58 13.87-22.66 35.506-28.43 54.451-6.64 21.805-6.67 56.096 0 77.52a138.195 138.195 0 0 0 70.82 82.642c22.97 11.131 35.74 14.302 61.52 15.992 46.36 3 86.3-8.891 122.16-35.461 32.73-24.283 56.16-59.266 64.33-96.226 1.52-6.815 2.38-13.32 1.59-13.559l-45.27-12.796c-.97-.286.48 4.431 1.53 9.007 3.1 13.32 2.38 44.205-1.45 58.812-14.61 56.378-66.12 84.212-124.52 67.3-27.14-7.872-55.83-26.645-55.83-36.559 0-2.383 23.49-34.53 52.42-71.657 28.93-37.127 80.87-103.565 115.56-148.031 34.69-44.468 77.2-98.418 93.88-119.89 38.45-49.208 40.98-53.45 40.81-75.064-.14-17.753-4.33-28-15.63-41.678-12.48-15.133-38.79-23.664-62.62-16.944-9.67 2.717-16.98 7.15-25.97 16.085a251.273 251.273 0 0 0-20.7 24.474c-22.4 29.025-72.7 93.39-74.13 94.82-1.43 1.43-54.63-104.853-54.68-109.142a14.757 14.757 0 0 1 4.77-9.007c3.79-2.55 5.48-4.766 15.03-4.766h13.39v-7.03H440.83l19.59-9.175c31.12-14.56 51.68-39.153 55.47-62.506 3.93-24.282-12.23-44.395-36.82-44.586-17.87-.143-31.92 11.676-36.19 29.716-4.14 17.54 7.79 38.295 25.69 42.894 5.31 1.382 10.39 1.43 10.39 2.216a55.553 55.553 0 0 1-8.94 13.202c-10.72 12.178-38.55 26.976-58.97 26.785h-5.39v8.626h8.94c13.63 0 28.59 11.2 35.07 23.83a36.592 36.592 0 0 1 4.62 15.728v191.212a36.913 36.913 0 0 1-5.9 19.422 42.578 42.578 0 0 1-30.72 19.064c-1.07.199-2.15.318-3.24.357h-8.93v7.149h117.75Zm201.71-195.407c32.93-42.584 36.25-46.111 48.56-51.71 44.58-20.233 93.24 26.808 73.25 70.87-3.77 8.27-56.5 77.805-84.73 111.739-10.7 12.867-16.2 15.346-25.57 11.557-3.67-1.477-39.45-72.967-41.24-82.356-2.76-14.632 2.07-24.379 29.73-60.148Zm-20.13 198.981c0 4.266-15.91 26.213-58.87 81.165-32.36 41.44-61.43 78.067-64.62 81.427-12.49 13.154-23.83 4.766-41.48-31.288-19.95-40.37-22.16-86.027-5.84-119.77 16.06-32.398 48.98-53.003 85.13-53.285 32.91.072 85.78 25.832 85.68 41.703Zm-200.38-238.634c.04-2.56.36-5.107.93-7.601a43.046 43.046 0 0 1 23.28-29.287c12.39-6.22 20.87-6.911 29.59-2.384 11.29 5.84 8.29.572 78.63 139.025 21.44 42.227 39.91 77.996 39.91 78.639 0 .643-12.65.5-23.52.5a180.906 180.906 0 0 0-111.56 40.225c-10.77 8.794-8.74 7.745-17.72 2.264-8.99-5.481-19.59-21.28-19.66-33.029Z"/></g></svg>